<?xml version="1.0" encoding="UTF-8" standalone="no"?>
<svg
   id="Layer_1"
   data-name="Layer 1"
   viewBox="0 0 122.88 122.88"
   version="1.1"
   sodipodi:docname="printer-icon.svg"
   width="122.88"
   height="122.88"
   inkscape:version="1.2.2 (732a01da63, 2022-12-09)"
   xmlns:inkscape="http://www.inkscape.org/namespaces/inkscape"
   xmlns:sodipodi="http://sodipodi.sourceforge.net/DTD/sodipodi-0.dtd"
   xmlns="http://www.w3.org/2000/svg"
   xmlns:svg="http://www.w3.org/2000/svg"
   xmlns:rdf="http://www.w3.org/1999/02/22-rdf-syntax-ns#"
   xmlns:cc="http://creativecommons.org/ns#"
   xmlns:dc="http://purl.org/dc/elements/1.1/">
  <defs id="defs9" />
  <title id="title2">printer</title>
  <path
     d="M 18.465013,93.924961 H 7.8250125 a 7.8,7.8 0 0 1 -5.52,-2.29 l -0.24,-0.26 a 7.82,7.82 0 0 1 -2.05999998,-5.31 v -46.56 a 7.81,7.81 0 0 1 2.29999998,-5.53 l 0.25,-0.23 a 7.77,7.77 0 0 1 5.27,-2.06 H 20.135013 a 8.07,8.07 0 0 1 -0.13,-1.48 v -18 a 8.05,8.05 0 0 1 2.39,-5.7200001 v 0 a 8.07,8.07 0 0 1 5.71,-2.42 h 66.68 a 8.13,8.13 0 0 1 8.109997,8.1100001 v 18 a 8.07,8.07 0 0 1 -0.14,1.48 h 12.31 a 7.81,7.81 0 0 1 5.51,2.29 v 0 a 7.8,7.8 0 0 1 2.3,5.52 v 46.6 a 7.84,7.84 0 0 1 -7.82,7.82 h -10.63 v 20.309999 a 4.63,4.63 0 0 1 -1.36,3.28 4.32,4.32 0 0 1 -0.39,0.34 4.6,4.6 0 0 1 -2.889997,1 h -76.68 a 4.63,4.63 0 0 1 -3.28,-1.36 3.06,3.06 0 0 1 -0.34,-0.39 4.6,4.6 0 0 1 -1,-2.89 V 93.924961 Z m 8.54,-62.24 h 68.91 l 0.19,-0.17 a 1.86,1.86 0 0 0 0.55,-1.31 v -18 a 1.88,1.88 0 0 0 -1.87,-1.87 h -66.68 a 1.87,1.87 0 0 0 -1.32,0.55 v 0 a 1.87,1.87 0 0 0 -0.54,1.32 v 18 a 1.84,1.84 0 0 0 0.55,1.31 l 0.19,0.17 z m 9.3,71.709999 a 2.4,2.4 0 0 1 0,-4.799999 h 27.34 a 2.4,2.4 0 0 1 0,4.799999 z m 0,-14.559999 a 2.4,2.4 0 0 1 0,-4.8 h 50.31 a 2.4,2.4 0 0 1 0,4.8 z m -29.2300005,-24.16 H 115.81501 v -25.17 a 0.76,0.76 0 0 0 -0.22,-0.54 0.77,0.77 0 0 0 -0.53,-0.22 H 7.8250125 a 0.76,0.76 0 0 0 -0.46,0.16 l -0.07,0.07 a 0.76,0.76 0 0 0 -0.22,0.53 z m 108.7399975,7.07 h -13.62 a 4.13,4.13 0 0 1 0.87,0.69 4.63,4.63 0 0 1 1.36,3.28 v 11.14 h 10.64 a 0.75,0.75 0 0 0 0.53,-0.22 0.79,0.79 0 0 0 0.22,-0.53 z m -95.119997,0 H 7.0750125 v 14.32 a 0.81,0.81 0 0 0 0.15,0.46 l 0.07,0.07 a 0.75,0.75 0 0 0 0.53,0.22 H 18.465013 v -11.1 a 4.63,4.63 0 0 1 1.36,-3.28 4.13,4.13 0 0 1 0.87,-0.69 z m 76.67,4.23 h -71.84 v 35.829999 h 71.84 z"
     id="path4"
     style="fill:#ffffff;fill-opacity:1" />
  <metadata id="metadata134">
    <rdf:RDF>
      <cc:Work rdf:about="">
        <dc:title>printer</dc:title>
      </cc:Work>
    </rdf:RDF>
  </metadata>
</svg>
