<?xml version="1.0" encoding="UTF-8" standalone="no"?>
<svg
   id="Layer_1"
   data-name="Layer 1"
   viewBox="0 0 122.88 120.89"
   version="1.1"
   sodipodi:docname="download.svg"
   inkscape:version="1.1.2 (b8e25be833, 2022-02-05)"
   xmlns:inkscape="http://www.inkscape.org/namespaces/inkscape"
   xmlns:sodipodi="http://sodipodi.sourceforge.net/DTD/sodipodi-0.dtd"
   xmlns="http://www.w3.org/2000/svg"
   xmlns:svg="http://www.w3.org/2000/svg">
  <defs id="defs9" />
  <title id="title2">download-file</title>
  <path
     d="m 81.171921,49.874768 c 2.581256,-2.658704 6.845307,-2.670649 9.441422,-0.02646 2.596116,2.644192 2.505939,6.907306 -0.199676,9.439348 L 65.34971,84.000771 c -2.570003,2.524599 -6.688858,2.524599 -9.25886,0 L 31.386293,59.604273 c -2.599299,-2.554403 -2.635691,-6.732297 -0.08129,-9.331594 2.554401,-2.599298 6.732295,-2.635698 9.331595,-0.0813 L 54.340163,64.12 54.474707,17.475124 c 0.151782,-3.493615 3.043559,-6.239225 6.540344,-6.209764 3.496784,0.02946 6.34189,2.823405 6.434786,6.319081 L 67.323702,63.834093 Z M 1.3671224,110.7723 1.4495162,85.905851 c -0.092713,-3.598619 2.8167394,-6.557019 6.416401,-6.524358 3.5996618,0.03266 6.4549558,3.043365 6.2969608,6.639709 l -0.05768,18.126638 c 25.267428,0.0494 69.455326,0.0667 94.638888,0.0173 l 0.0576,-18.200621 c 0.0318,-3.508179 2.90154,-6.326326 6.40972,-6.294516 3.50817,0.03181 6.32632,2.901531 6.29451,6.40971 l -0.0823,24.684387 h -0.074 c -0.15296,3.36851 -2.91441,6.02876 -6.28629,6.0559 -29.473157,0.0549 -77.907052,0.055 -107.3765641,0 -3.3816667,-0.009 -6.1615123,-2.66972 -6.3196035,-6.0477 z"
     id="path4"
     style="fill:#ffffff;fill-opacity:1;stroke:none;stroke-width:5;stroke-miterlimit:4;stroke-dasharray:none;stroke-opacity:1"
     sodipodi:nodetypes="csccccscccscccccsccccscccccc" />
</svg>
