<?xml version="1.0" encoding="UTF-8" standalone="no"?>
<svg
   version="1.1"
   id="Layer_1"
   x="0px"
   y="0px"
   viewBox="0 0 122.88 122.87"
   style="enable-background:new 0 0 122.88 122.87"
   xml:space="preserve"
   sodipodi:docname="fullscreen.svg"
   inkscape:version="1.1.2 (b8e25be833, 2022-02-05)"
   xmlns:inkscape="http://www.inkscape.org/namespaces/inkscape"
   xmlns:sodipodi="http://sodipodi.sourceforge.net/DTD/sodipodi-0.dtd"
   xmlns="http://www.w3.org/2000/svg"
   xmlns:svg="http://www.w3.org/2000/svg"><defs
     id="defs9" /><sodipodi:namedview
     id="namedview7"
     pagecolor="#ffffff"
     bordercolor="#666666"
     borderopacity="1.0"
     inkscape:pageshadow="2"
     inkscape:pageopacity="0.0"
     inkscape:pagecheckerboard="0"
     showgrid="false"
     inkscape:zoom="7.1050702"
     inkscape:cx="31.737899"
     inkscape:cy="61.364629"
     inkscape:window-width="3840"
     inkscape:window-height="2050"
     inkscape:window-x="-12"
     inkscape:window-y="-12"
     inkscape:window-maximized="1"
     inkscape:current-layer="g4" /><g
     id="g4"><path
       d="M122.88,77.63v41.12c0,2.28-1.85,4.12-4.12,4.12H77.33v-9.62h35.95c0-12.34,0-23.27,0-35.62H122.88L122.88,77.63z M77.39,9.53V0h41.37c2.28,0,4.12,1.85,4.12,4.12v41.18h-9.63V9.53H77.39L77.39,9.53z M9.63,45.24H0V4.12C0,1.85,1.85,0,4.12,0h41 v9.64H9.63V45.24L9.63,45.24z M45.07,113.27v9.6H4.12c-2.28,0-4.12-1.85-4.12-4.13V77.57h9.63v35.71H45.07L45.07,113.27z"
       id="path2"
       style="fill:#ffffff;fill-opacity:1" /></g></svg>
